<?xml version="1.0" encoding="UTF-8"?>
<svg id="Layer_1" xmlns="http://www.w3.org/2000/svg" version="1.1" viewBox="0 0 583 536.15">
  <!-- Generator: Adobe Illustrator 30.2.1, SVG Export Plug-In . SVG Version: 2.1.1 Build 1)  -->
  <defs>
    <style>
      .st0 {
        fill: #fff4b0;
        stroke: #f2c300;
        stroke-width: 4px;
      }
    </style>
  </defs>
  <g>
    <path d="M289.5,260.72l.06-.5-.99-.12-.06.5.5.06.5.06ZM199.54,362.46c-.11.25,0,.55.26.66l4.14,1.78c.25.11.55,0,.66-.26.11-.25,0-.55-.26-.66l-3.68-1.58,1.58-3.68c.11-.25,0-.55-.26-.66-.25-.11-.55,0-.66.26l-1.77,4.14ZM289,260.66l-.5-.06c-2.71,23.09-24.23,75.86-88.69,101.59l.18.46.18.46c64.85-25.89,86.57-79,89.31-102.41l-.5-.06Z"/>
    <path d="M204.13,365.94c-.2,0-.4-.04-.59-.12l-3.56-1.53-.35.14-.14-.35-.08-.03c-.37-.16-.65-.45-.8-.82-.15-.37-.14-.78.01-1.15l.03-.08-.14-.35.35-.14,1.53-3.56c.16-.37.45-.65.82-.8.37-.15.78-.14,1.15.02.37.16.65.45.8.82.15.37.14.78-.01,1.15l-.33.76c60.53-25.67,81.84-75.77,84.66-99.22l.14-1.16h0s.06-.5.06-.5l2.98.35-.06.5h0l-.23,1.99h0c-3.29,24.41-25.3,74.97-86.49,100.86l.86.37c.37.16.65.45.8.82.15.37.14.78-.02,1.15-.24.57-.8.91-1.38.91ZM203.94,364.9s0,0,0,0h0Z"/>
  </g>
  <g>
    <path d="M298.61,265.35c.17-.22.48-.25.7-.08l3.54,2.78c.22.17.26.48.08.7-.17.22-.48.26-.7.08l-3.15-2.47-2.47,3.15c-.17.22-.48.26-.7.09-.22-.17-.26-.48-.08-.7l2.78-3.54ZM388.18,364.2l.47.18-.36.93-.47-.18.18-.47.18-.47ZM299,265.66l.5-.06c2.71,22.4,24.22,73.61,88.68,98.59l-.18.47-.18.47c-64.84-25.13-86.57-76.68-89.32-99.41l.5-.06Z"/>
    <path d="M388.86,366.6l-1.4-.54c-.16-.06-.32-.12-.48-.19l-.45-.17h0c-60.9-23.99-83.99-71.54-88.49-96.38l-.64.81c-.25.31-.6.52-1,.56-.4.05-.79-.06-1.11-.31-.65-.51-.76-1.45-.25-2.11l2.39-3.05-.04-.38.38-.05.05-.07c.25-.32.6-.52,1-.56.4-.05.79.06,1.11.31l.07.05.38-.05.04.38,3.05,2.39c.31.25.52.6.56,1,.05.4-.06.79-.31,1.11-.24.31-.6.51-1,.56-.4.05-.79-.06-1.11-.31l-.55-.43c4.55,24.4,27.42,70.8,87.48,94.08h0l1.4.54-1.08,2.8ZM295.83,268.89s0,0,0,0h0ZM302.23,268.83s0,0,0,0h0Z"/>
  </g>
  <g>
    <path d="M154.51,348.67v.5s1.01-.01,1.01-.01v-.5s-.51,0-.51,0h-.5ZM233.48,230.81c.08-.26-.06-.54-.33-.63l-4.29-1.34c-.26-.08-.54.07-.63.33-.08.26.07.54.33.63l3.82,1.19-1.19,3.82c-.08.26.07.54.33.63.26.08.54-.07.63-.33l1.34-4.29ZM155.01,348.66h.5c-.34-25.39,14.71-84.54,77.73-117.56l-.23-.44-.23-.44c-63.42,33.23-78.61,92.77-78.26,118.45h.5Z"/>
    <path d="M153.52,350.18l-.02-1.5s0-.07,0-.1v-.9s0,0,0,0c.05-26.8,15.87-83.68,75.65-116.65l-.89-.28c-.79-.25-1.23-1.09-.99-1.88.25-.79,1.09-1.23,1.88-.99l3.7,1.16.34-.18.18.34.08.03c.38.12.7.38.88.74.19.35.22.76.1,1.14l-.03.08.18.34-.33.18-1.16,3.7c-.25.79-1.09,1.23-1.88.99-.79-.25-1.23-1.09-.99-1.88l.25-.79c-59.11,32.67-74.27,89.05-73.97,114.81v1.1s.01,0,.01,0v.5s-2.99.04-2.99.04Z"/>
  </g>
  <g>
    <path d="M279.93,142.81l.15.48.96-.3-.15-.48-.48.15-.48.15ZM305.74,137.75c.14.24.44.33.68.19l3.92-2.21c.24-.14.32-.44.19-.68-.14-.24-.44-.33-.68-.19l-3.48,1.97-1.97-3.48c-.14-.24-.44-.33-.68-.19-.24.14-.32.44-.19.68l2.21,3.92ZM280.4,142.66l.48-.15c-3.25-10.46-6.79-26.9-6.34-40.7.23-6.91,1.45-13.09,4.16-17.53,2.68-4.41,6.84-7.12,13.05-7.12v-1c-6.57,0-11.04,2.91-13.9,7.6-2.84,4.66-4.07,11.04-4.3,18.02-.46,13.96,3.11,30.52,6.39,41.03l.48-.15ZM291.74,76.66v.5c6.24,0,10.55,2.42,13.46,6.36,2.93,3.96,4.47,9.5,5.04,15.75,1.13,12.5-1.63,27.65-4.55,38.11l.48.13.48.13c2.93-10.51,5.73-25.79,4.58-38.46-.57-6.34-2.14-12.08-5.23-16.25-3.11-4.2-7.72-6.76-14.26-6.76v.5Z"/>
    <path d="M279.42,144.54l-.44-1.43c-.03-.09-.06-.18-.09-.27l-.21-.68h0c-3.31-10.94-6.58-26.99-6.14-40.4.26-7.86,1.75-14.08,4.45-18.5,3.1-5.09,7.72-7.79,13.76-8.06v-.02l2,.02c6,.24,10.73,2.64,14.07,7.15,2.95,3.99,4.77,9.62,5.42,16.76,1.19,13.07-1.85,27.88-3.7,35.37l.83-.47c.71-.41,1.64-.15,2.04.57.41.72.15,1.64-.57,2.05l-3.38,1.91-.1.36-.37-.1-.08.04c-.35.2-.75.25-1.14.14-.39-.11-.71-.36-.9-.71l-.04-.07-.37-.1.1-.37-1.91-3.38c-.2-.35-.25-.75-.14-1.14.11-.39.36-.71.71-.91.72-.4,1.63-.15,2.04.57l.39.7c1.82-7.36,4.72-21.65,3.58-34.19-.6-6.58-2.23-11.71-4.84-15.24-2.96-4-7.1-5.95-12.66-5.95s-9.47,2.17-12.19,6.64c-2.42,3.97-3.77,9.71-4.01,17.04-.44,13.43,2.96,29.66,6.3,40.37h0s.45,1.43.45,1.43l-2.87.89Z"/>
  </g>
  <g>
    <path d="M95.14,420.08l.48-.14-.29-.96-.48.14.14.48.14.48ZM90.1,394.77c.24-.14.32-.44.18-.68l-2.24-3.9c-.14-.24-.44-.32-.68-.18-.24.14-.32.44-.18.68l1.99,3.47-3.47,1.99c-.24.14-.32.44-.18.68.14.24.44.32.68.18l3.9-2.24ZM95,419.6l-.14-.48c-10.44,3.15-27.39,6.5-41.69,5.98-7.16-.26-13.6-1.49-18.23-4.14-4.6-2.63-7.43-6.67-7.43-12.66h-1c0,6.39,3.05,10.74,7.93,13.53,4.84,2.77,11.47,4.01,18.7,4.27,14.45.52,31.51-2.85,42.02-6.02l-.14-.48ZM27,408.31h.5c0-6.02,2.53-10.19,6.66-13.01,4.15-2.84,9.94-4.33,16.45-4.88,13.01-1.1,28.66,1.58,39.11,4.4l.13-.48.13-.48c-10.5-2.83-26.28-5.54-39.45-4.43-6.58.56-12.58,2.07-16.93,5.05-4.39,3-7.09,7.48-7.09,13.83h.5Z"/>
    <path d="M56.15,427.16c-1.03,0-2.05-.02-3.06-.05-8.13-.29-14.57-1.78-19.16-4.4-5.3-3.04-8.12-7.54-8.41-13.4h-.02l.02-2c.26-5.83,2.78-10.42,7.51-13.66,4.15-2.84,10.01-4.6,17.41-5.22,13.79-1.17,28.8,1.78,36.34,3.58l-.48-.83c-.2-.35-.25-.75-.15-1.14.1-.39.35-.71.7-.91.72-.41,1.63-.17,2.05.55l1.93,3.36.37.1-.1.37.04.08c.2.35.25.75.15,1.14-.1.39-.35.71-.7.91l-.07.04-.1.37-.37-.1-3.36,1.93c-.35.2-.75.25-1.14.15-.39-.1-.71-.35-.91-.7-.41-.72-.16-1.64.55-2.05l.69-.4c-7.42-1.77-21.93-4.58-35.2-3.47-6.88.58-12.25,2.17-15.97,4.71-4.19,2.87-6.22,6.85-6.22,12.18s2.27,9.13,6.92,11.79c4.16,2.38,10.14,3.73,17.77,4.01,14.13.5,30.86-2.81,41.04-5.84l1.28-.39h0s.48-.14.48-.14l.87,2.87-2.39.72h0c-9.71,2.83-24.83,5.83-38.32,5.83Z"/>
  </g>
  <g>
    <path d="M427.34,343.02c-.2.19-.51.19-.71,0l-3.14-3.23c-.19-.2-.19-.51,0-.71.2-.19.52-.19.71,0l2.79,2.87,2.87-2.79c.2-.19.51-.19.71.01.19.2.19.51-.01.71l-3.23,3.14ZM348.77,227.11l-.44-.23.46-.89.45.23-.23.45-.23.45ZM426.99,342.66h-.5c.34-24.96-14.71-83.1-77.72-115.55l.23-.45.23-.45c63.42,32.67,78.61,91.2,78.26,116.45h-.5Z"/>
    <path d="M426.99,344.16c-.39,0-.78-.15-1.07-.45l-.06-.06h-.38s0-.38,0-.38l-2.7-2.78c-.28-.29-.43-.67-.43-1.07,0-.4.17-.78.46-1.05.29-.28.67-.42,1.07-.42.4,0,.78.17,1.05.46l.5.52c-1.13-27.16-18.09-80.46-77.03-110.87l-1.43-.74,1.37-2.67.44.23h0s1.78.91,1.78.91h0c59.76,31.23,76.84,85.75,77.88,113.37l.72-.71c.59-.57,1.54-.56,2.12.03.58.6.56,1.55-.03,2.12l-2.78,2.71v.38s-.38,0-.38,0l-.06.06c-.29.28-.67.42-1.04.42ZM423.5,339.78h0s0,0,0,0Z"/>
  </g>
  <g>
    <path d="M492.85,420.24l-.48-.15.3-.95.48.15-.15.48-.15.48ZM496.89,394.92c-.24-.14-.33-.44-.19-.68l2.19-3.93c.14-.24.44-.33.68-.19.24.13.33.44.19.68l-1.95,3.49,3.49,1.95c.24.13.33.44.19.68-.14.24-.44.33-.68.19l-3.93-2.19ZM493,419.77l.15-.48c9.95,3.15,25.64,6.41,38.81,5.8,6.59-.31,12.49-1.58,16.73-4.26,4.21-2.66,6.8-6.73,6.8-12.74h1c0,6.37-2.78,10.75-7.27,13.59-4.45,2.82-10.56,4.1-17.22,4.41-13.33.62-29.15-2.67-39.16-5.84l.15-.48ZM556,408.08h-.5c0-6.04-2.36-10.19-6.18-12.97-3.85-2.8-9.23-4.24-15.3-4.75-12.14-1-26.79,1.77-36.74,4.59l-.14-.48-.14-.48c10.01-2.84,24.79-5.65,37.1-4.63,6.15.51,11.74,1.98,15.81,4.93,4.09,2.98,6.6,7.43,6.6,13.77h-.5Z"/>
    <path d="M528.62,427.16c-12.21,0-25.73-2.79-35.12-5.67h0s-.94-.29-.94-.29c0,0,0,0,0,0l-1.43-.45.91-2.86,1.43.45c10.03,3.18,25.4,6.36,38.47,5.75,6.98-.32,12.45-1.71,16.24-4.11,4.26-2.7,6.34-6.59,6.34-11.9s-1.89-9.33-5.77-12.16c-3.44-2.5-8.42-4.03-14.8-4.56-12.05-1-25.71,1.82-32.83,3.61l.69.39c.72.4.98,1.32.58,2.04-.4.72-1.32.98-2.04.58l-3.39-1.89-.36.1-.1-.36-.08-.04c-.35-.2-.6-.52-.71-.9-.11-.38-.06-.79.14-1.14l.04-.07-.1-.36.36-.1,1.89-3.38c.4-.72,1.32-.98,2.04-.58.35.19.6.51.71.9.11.39.06.79-.14,1.14l-.46.83c7.25-1.83,21.43-4.78,34.01-3.74,6.94.57,12.43,2.3,16.32,5.12,4.4,3.2,6.75,7.77,6.99,13.58h.02l-.02,2c-.26,5.84-2.85,10.36-7.71,13.43-4.24,2.68-10.2,4.22-17.71,4.57-1.13.05-2.28.08-3.43.08ZM498.89,390.31s0,0,0,0h0Z"/>
  </g>
  <g>
    <path d="M201.7,377.11l-.4.3.6.8.4-.3-.3-.4-.3-.4ZM372.12,380.15c.27-.07.43-.34.36-.61l-1.1-4.36c-.07-.27-.34-.43-.61-.36-.27.07-.43.34-.36.61l.98,3.88-3.88.98c-.27.07-.43.34-.36.61.07.27.34.43.61.36l4.36-1.1ZM202,377.51l.3.4c23.81-17.81,95.77-41.78,169.44,2.18l.26-.43.26-.43c-74.07-44.19-146.47-20.14-170.56-2.12l.3.4Z"/>
    <path d="M367.63,382.27c-.27,0-.53-.07-.76-.21-.35-.21-.59-.53-.69-.92-.2-.8.29-1.62,1.09-1.82l.8-.2c-39-22.25-75.58-24.45-99.66-22.27-19.03,1.72-47.6,8.48-65.52,21.88l-1.2.9-1.8-2.4,1.21-.91s.06-.04.09-.06l.7-.52h0c12.3-8.89,35.88-19.13,66.24-21.87,24.53-2.22,61.81.02,101.53,22.72l-.23-.9c-.1-.39-.04-.79.17-1.13.21-.35.53-.59.92-.69.39-.1.79-.04,1.13.17.34.21.59.53.69.92l.95,3.76.32.19-.19.32.02.08c.2.8-.29,1.62-1.09,1.82l-.08.02-.19.32-.32-.19-3.76.95c-.12.03-.25.05-.37.05ZM367.51,380.28s0,0,0,0h0Z"/>
  </g>
  <g>
    <path d="M210.51,437.88c-.04-.27.15-.53.42-.57l4.46-.63c.27-.04.53.15.57.42.04.27-.15.53-.43.57l-3.96.56.56,3.96c.04.27-.15.53-.42.57-.27.04-.53-.15-.57-.43l-.63-4.46ZM379.74,435.23l.43-.26.52.86-.43.26-.26-.43-.26-.43ZM211,437.81l.3-.4c23.67,17.81,95.21,41.78,168.44-2.18l.26.43.26.43c-73.63,44.19-145.61,20.14-169.56,2.12l.3-.4Z"/>
    <path d="M291.64,462.15c-5.36,0-10.34-.26-14.89-.67-28.56-2.59-51.08-11.9-63.78-20.43l.14,1.01c.06.39-.04.79-.29,1.11-.24.32-.59.53-.99.58-.82.11-1.58-.46-1.69-1.27l-.54-3.84-.3-.23.23-.3v-.08c-.13-.82.44-1.58,1.26-1.69h.09s.23-.32.23-.32l.3.23,3.84-.54c.39-.06.79.04,1.11.29.32.24.53.59.58.99.06.4-.04.79-.29,1.11-.24.32-.59.53-.99.58l-.73.1c17.87,11.97,44.21,18.1,62.08,19.72,24.57,2.23,62.25-.14,102.19-24.11l1.29-.78,1.54,2.57-1.29.77s0,0,0,0l-.85.51h0c-32.94,19.53-64.33,24.68-88.27,24.68Z"/>
  </g>
  <path class="st0" d="M292.5,141.16c33.15,0,60,26.65,60,59.5s-26.85,59.5-60,59.5-60-26.65-60-59.5,26.85-59.5,60-59.5Z"/>
  <circle class="st0" cx="153" cy="407.66" r="59.5"/>
  <path class="st0" d="M431.5,348.16c33.15,0,60,26.65,60,59.5s-26.85,59.5-60,59.5-60-26.65-60-59.5,26.85-59.5,60-59.5Z"/>
</svg>